<svg aria-hidden="true" style="width:0;height:0;position:absolute;overflow:hidden" xmlns="http://www.w3.org/2000/svg"><defs><symbol id="icon-search" viewBox="0 0 32 32"><path d="m31.574 29.517-9.918-9.918a12.063 12.063 0 0 0 2.587-7.477C24.243 5.438 18.805 0 12.121 0S-.001 5.438-.001 12.122s5.438 12.122 12.122 12.122a12.06 12.06 0 0 0 7.477-2.587l9.918 9.918c.284.284.656.426 1.029.426s.745-.142 1.028-.426a1.455 1.455 0 0 0 0-2.057zM2.909 12.122c0-5.08 4.133-9.213 9.213-9.213s9.213 4.133 9.213 9.213-4.133 9.212-9.213 9.212c-5.08 0-9.213-4.133-9.213-9.212z"/></symbol></defs></svg>