<svg aria-hidden="true" style="position: absolute; width: 0; height: 0; overflow: hidden;" version="1.1" xmlns="http://www.w3.org/2000/svg" xmlns:xlink="http://www.w3.org/1999/xlink">
<defs>
<symbol id="icon-search" viewBox="0 0 32 32">
<path d="M31.574 29.517l-9.918-9.918c1.62-2.061 2.587-4.659 2.587-7.477 0-6.684-5.438-12.122-12.122-12.122s-12.122 5.438-12.122 12.122c0 6.684 5.438 12.122 12.122 12.122 2.819 0 5.416-0.967 7.477-2.587l9.918 9.918c0.284 0.284 0.656 0.426 1.029 0.426s0.745-0.142 1.028-0.426c0.568-0.568 0.568-1.489 0-2.057zM2.909 12.122c0-5.080 4.133-9.213 9.213-9.213s9.213 4.133 9.213 9.213-4.133 9.212-9.213 9.212c-5.080 0-9.213-4.133-9.213-9.212z"></path>
</symbol>
</defs>
</svg>